<svg width="328" height="34" viewBox="0 0 328 34" fill="none" xmlns="http://www.w3.org/2000/svg">
<path d="M24.1544 7.00292C21.3241 6.94843 18.5291 7.65769 16.0463 9.06041C13.5636 10.4631 11.4793 12.5106 10 15H38C35.8214 10.1739 30.7337 7.00292 24.1544 7.00292Z" fill="#F5CD70"/>
<path d="M52.606 27.9995H46.6687C46.5708 28.001 46.4759 27.9658 46.403 27.9008C46.3302 27.8359 46.2848 27.7461 46.2759 27.6494C46.0994 26.4635 45.6947 25.3224 45.084 24.288C43.7597 22.0995 41.7335 21.0053 39.0232 21.0053C36.3746 21.0053 34.397 22.1083 33.1124 24.2836C32.5145 25.3231 32.1192 26.4649 31.947 27.6494C31.9362 27.7453 31.8902 27.834 31.8178 27.8985C31.7453 27.9631 31.6515 27.999 31.5541 27.9995H21.9883C21.8907 28 21.7963 27.9644 21.7237 27.8997C21.6511 27.8349 21.6053 27.7457 21.5955 27.6494C21.4152 26.4749 21.009 25.3456 20.3992 24.323C19.0749 22.1652 17.0576 21.071 14.3692 21.071C11.6809 21.071 9.73864 22.1696 8.432 24.3405C7.8286 25.3559 7.42561 26.4758 7.24455 27.6406C7.23366 27.7361 7.1875 27.8243 7.11497 27.8882C7.04244 27.952 6.94866 27.987 6.85168 27.9864H2.46386C1.74762 27.9919 1.05169 27.7505 0.495079 27.3036C0.332596 27.1446 0.204855 26.9541 0.1198 26.744C0.0347448 26.5339 -0.00580156 26.3087 0.000678852 26.0825C-0.0096028 25.7112 0.0971254 25.346 0.306005 25.0377C0.514884 24.7294 0.815519 24.4933 1.16606 24.3624C1.39936 24.2652 1.64407 24.1976 1.89442 24.161C2.55353 19.0877 4.77662 14.3399 8.25985 10.5666C10.1997 8.4677 12.5643 6.79809 15.1991 5.66682C17.834 4.53554 20.6799 3.96805 23.551 4.00139C30.2299 4.00139 34.547 6.62748 36.9882 8.86404C38.4929 10.201 39.7377 11.8002 40.6609 13.5822C46.6378 15.333 49.6749 18.9964 51.1669 21.7975C52.1537 23.595 52.7761 25.5666 52.9989 27.6012C53.003 27.6547 52.9958 27.7085 52.9775 27.7591C52.9592 27.8096 52.9304 27.8557 52.8929 27.8945C52.8547 27.9303 52.8096 27.9581 52.7603 27.9762C52.711 27.9942 52.6585 28.0022 52.606 27.9995ZM47.0086 27.2336H52.1645C51.8909 25.4501 51.3132 23.7258 50.4562 22.1346C48.3638 18.2348 44.9383 15.5956 40.2724 14.2869C40.2156 14.2712 40.163 14.2429 40.1187 14.2043C40.0744 14.1656 40.0394 14.1176 40.0164 14.0637C39.1298 12.3017 37.9116 10.724 36.4275 9.41551C34.0924 7.30151 29.9606 4.78484 23.551 4.78484C20.7874 4.7559 18.0487 5.30498 15.5136 6.39624C12.9785 7.48751 10.7038 9.09645 8.83812 11.1181C5.39987 14.847 3.23703 19.5572 2.65809 24.5768C2.64737 24.672 2.60201 24.7601 2.5305 24.8246C2.459 24.889 2.36625 24.9254 2.26963 24.927C2.11955 24.927 0.799667 24.9882 0.799667 26.1C0.794146 26.222 0.814466 26.3439 0.859322 26.4577C0.904178 26.5716 0.972578 26.6748 1.06011 26.7609C1.46563 27.0673 1.96283 27.2306 2.47269 27.2248H6.52944C6.751 26.0732 7.169 24.9676 7.76545 23.9553C8.42898 22.8065 9.3965 21.8592 10.5635 21.2159C11.7305 20.5726 13.0525 20.2576 14.3869 20.305C18.117 20.305 20.099 22.2921 21.1055 23.9597C21.7074 24.9709 22.1257 26.079 22.3415 27.2336H31.2319C31.4388 26.0735 31.8449 24.9573 32.4326 23.9334C33.0835 22.7705 34.047 21.8095 35.2161 21.1573C36.3851 20.5051 37.7137 20.1874 39.0541 20.2394C42.8106 20.2394 44.7927 22.2484 45.8079 23.9291C46.3983 24.9532 46.8046 26.0714 47.0086 27.2336Z" fill="#5DA0FB"/>
<path d="M14.0043 34C12.8174 34.0009 11.657 33.6497 10.6697 32.9909C9.68246 32.3321 8.91276 31.3954 8.45797 30.2991C8.00318 29.2028 7.88374 27.9963 8.11476 26.8321C8.34579 25.6679 8.91689 24.5984 9.75584 23.7589C10.5948 22.9193 11.6639 22.3475 12.8279 22.1156C13.9919 21.8837 15.1985 22.0023 16.2951 22.4563C17.3917 22.9103 18.329 23.6793 18.9885 24.6661C19.648 25.6529 20 26.8131 20 28C19.9989 29.5902 19.3669 31.115 18.2429 32.2399C17.1189 33.3647 15.5945 33.9977 14.0043 34ZM14.0043 22.777C12.9701 22.7761 11.9588 23.0821 11.0985 23.6561C10.2382 24.2302 9.56758 25.0466 9.1714 26.0019C8.77522 26.9573 8.67134 28.0087 8.8729 29.0231C9.07446 30.0375 9.5724 30.9693 10.3037 31.7006C11.035 32.4319 11.9669 32.9299 12.9813 33.1314C13.9957 33.333 15.0471 33.2291 16.0024 32.8329C16.9578 32.4367 17.7741 31.7661 18.3482 30.9058C18.9222 30.0455 19.2282 29.0342 19.2273 28C19.2251 26.6155 18.674 25.2883 17.695 24.3093C16.716 23.3303 15.3888 22.7793 14.0043 22.777Z" fill="#5DA0FB"/>
<path d="M39.0043 34C37.8174 34.0009 36.657 33.6497 35.6697 32.9909C34.6825 32.3321 33.9128 31.3954 33.458 30.2991C33.0032 29.2028 32.8837 27.9963 33.1148 26.8321C33.3458 25.6679 33.9169 24.5984 34.7558 23.7589C35.5948 22.9193 36.6639 22.3475 37.8279 22.1156C38.9919 21.8837 40.1985 22.0023 41.2951 22.4563C42.3917 22.9103 43.329 23.6793 43.9885 24.6661C44.648 25.6529 45 26.8131 45 28C44.9989 29.5902 44.3669 31.115 43.2429 32.2399C42.1189 33.3647 40.5945 33.9977 39.0043 34ZM39.0043 22.777C37.9701 22.7761 36.9588 23.0821 36.0985 23.6561C35.2382 24.2302 34.5676 25.0466 34.1714 26.0019C33.7752 26.9573 33.6713 28.0087 33.8729 29.0231C34.0745 30.0375 34.5724 30.9693 35.3037 31.7006C36.035 32.4319 36.9669 32.9299 37.9813 33.1314C38.9957 33.333 40.0471 33.2291 41.0024 32.8329C41.9578 32.4367 42.7741 31.7661 43.3482 30.9058C43.9222 30.0455 44.2282 29.0342 44.2273 28C44.2251 26.6155 43.674 25.2883 42.695 24.3093C41.716 23.3303 40.3888 22.7793 39.0043 22.777Z" fill="#5DA0FB"/>
<path d="M308.305 12.0863C309.38 9.51234 308.165 6.55414 305.591 5.479C303.017 4.40387 300.059 5.61892 298.984 8.19291C297.909 10.7669 299.124 13.7251 301.698 14.8002C304.272 15.8754 307.23 14.6603 308.305 12.0863Z" fill="#F5CD70"/>
<path d="M323 15C325.761 15 328 12.7614 328 10C328 7.23858 325.761 5 323 5C320.239 5 318 7.23858 318 10C318 12.7614 320.239 15 323 15Z" fill="#F5CD70"/>
<path d="M302.5 15C301.412 15 300.348 14.6773 299.444 14.0728C298.539 13.4682 297.834 12.609 297.418 11.6037C297.002 10.5985 296.893 9.49239 297.106 8.42538C297.319 7.35836 297.843 6.37836 298.612 5.60935C299.382 4.84034 300.363 4.31686 301.43 4.10514C302.497 3.89342 303.603 4.00298 304.608 4.41994C305.613 4.8369 306.471 5.54254 307.075 6.44759C307.679 7.35264 308.001 8.41644 308 9.50442C307.998 10.962 307.417 12.3591 306.386 13.3894C305.355 14.4196 303.958 14.9988 302.5 15ZM302.5 4.79646C301.568 4.79383 300.657 5.06772 299.881 5.58344C299.105 6.09915 298.499 6.83352 298.141 7.69355C297.783 8.55358 297.687 9.50061 297.868 10.4147C298.048 11.3289 298.495 12.169 299.153 12.8287C299.811 13.4885 300.65 13.9382 301.563 14.1209C302.477 14.3037 303.424 14.2112 304.285 13.8553C305.146 13.4993 305.882 12.8959 306.4 12.1214C306.918 11.3469 307.195 10.4361 307.195 9.50442C307.195 8.25768 306.701 7.06174 305.821 6.17851C304.941 5.29527 303.747 4.79672 302.5 4.79204V4.79646Z" fill="#5DA0FB"/>
<path d="M321.5 15C320.412 15 319.348 14.6773 318.444 14.0728C317.539 13.4682 316.834 12.609 316.418 11.6037C316.002 10.5985 315.893 9.49239 316.106 8.42538C316.319 7.35836 316.843 6.37836 317.612 5.60935C318.382 4.84034 319.363 4.31686 320.43 4.10514C321.497 3.89342 322.603 4.00298 323.608 4.41994C324.613 4.8369 325.471 5.54254 326.075 6.44759C326.679 7.35264 327.001 8.41644 327 9.50442C326.998 10.962 326.417 12.3591 325.386 13.3894C324.355 14.4196 322.958 14.9988 321.5 15ZM321.5 4.79646C320.569 4.79646 319.659 5.07258 318.884 5.5899C318.11 6.10721 317.507 6.8425 317.15 7.70276C316.794 8.56303 316.701 9.50964 316.882 10.4229C317.064 11.3362 317.513 12.175 318.171 12.8335C318.829 13.4919 319.668 13.9403 320.582 14.1219C321.495 14.3036 322.441 14.2103 323.302 13.854C324.162 13.4977 324.897 12.8942 325.415 12.12C325.932 11.3458 326.208 10.4356 326.208 9.50442C326.208 8.25539 325.712 7.05745 324.829 6.17383C323.947 5.29021 322.749 4.79321 321.5 4.79204V4.79646Z" fill="#5DA0FB"/>
<path d="M302.396 9.99565C302.329 9.99634 302.264 9.97987 302.206 9.9479C302.114 9.89837 302.046 9.81555 302.017 9.71731C301.987 9.61906 301.997 9.51327 302.046 9.42273L307.145 0.212676C307.157 0.188007 307.172 0.164717 307.189 0.14323C307.203 0.125209 307.219 0.109145 307.238 0.0954872C307.307 0.0376064 307.394 0.0040187 307.485 7.11954e-07H317.5C317.578 -0.000144735 317.653 0.0219981 317.718 0.0636716C317.782 0.105345 317.833 0.164713 317.863 0.234379L321.966 9.45746C321.993 9.51647 322.004 9.58107 321.999 9.64538C321.993 9.70968 321.972 9.77164 321.936 9.82559C321.899 9.87955 321.85 9.92377 321.792 9.95423C321.734 9.9847 321.67 10.0004 321.604 9.99999H311.589C311.512 9.99942 311.437 9.97748 311.373 9.93674C311.309 9.896 311.258 9.83815 311.226 9.76996L307.454 1.2717L302.745 9.796C302.71 9.85687 302.66 9.90749 302.598 9.9426C302.537 9.97771 302.467 9.99603 302.396 9.99565ZM311.849 9.21874H320.998L317.257 0.772569H308.1L311.849 9.21874Z" fill="#5DA0FB"/>
</svg>
