<svg width="20" height="16" viewBox="0 0 20 16" fill="none" xmlns="http://www.w3.org/2000/svg">
<path d="M19.5999 2.04544C18.8935 2.35904 18.1343 2.57024 17.3375 2.66544C18.1511 2.17824 18.7759 1.40624 19.0695 0.486242C18.3087 0.937442 17.4655 1.26544 16.5679 1.44224C15.8503 0.676642 14.8255 0.198242 13.6927 0.198242C11.1495 0.198242 9.2807 2.57104 9.8551 5.03424C6.5823 4.87024 3.6799 3.30224 1.7367 0.919042C0.704702 2.68944 1.2015 5.00544 2.9551 6.17824C2.3103 6.15744 1.7023 5.98064 1.1719 5.68544C1.1287 7.51024 2.4367 9.21744 4.3311 9.59744C3.7767 9.74784 3.1695 9.78304 2.5519 9.66464C3.0527 11.2294 4.5071 12.3678 6.2319 12.3998C4.5759 13.6982 2.4895 14.2782 0.399902 14.0318C2.1431 15.1494 4.2143 15.8014 6.4383 15.8014C13.7519 15.8014 17.8839 9.62464 17.6343 4.08464C18.4039 3.52864 19.0719 2.83504 19.5999 2.04544Z" fill="#5DA0FB"/>
</svg>
